<?xml version="1.0" encoding="UTF-8" standalone="no"?>
<svg width="18px" height="16px" viewBox="0 0 18 16" version="1.1" xmlns="http://www.w3.org/2000/svg" xmlns:xlink="http://www.w3.org/1999/xlink">
    <!-- Generator: Sketch 39 (31667) - http://www.bohemiancoding.com/sketch -->
    <title>icon-twitter</title>
    <desc>Created with Sketch.</desc>
    <defs></defs>
    <g id="Icons" stroke="none" stroke-width="1" fill="none" fill-rule="evenodd">
        <g id="Artboard" transform="translate(-101.000000, -122.000000)" fill="#13161F">
            <g id="icon-twitter" transform="translate(101.000000, 122.000000)">
                <path d="M17.965125,2.352 C17.305875,2.64914286 16.596,2.85028571 15.852375,2.94057143 C16.61175,2.47771429 17.195625,1.74628571 17.470125,0.873142857 C16.759125,1.30171429 15.971625,1.61257143 15.134625,1.77942857 C14.464125,1.05257143 13.507875,0.598857143 12.44925,0.598857143 C10.4175,0.598857143 8.7705,2.272 8.7705,4.336 C8.7705,4.62857143 8.803125,4.91428571 8.866125,5.18742857 C5.808375,5.03314286 3.097125,3.54514286 1.2825,1.28457143 C0.966375,1.83657143 0.78525,2.47771429 0.78525,3.16228571 C0.78525,4.45828571 1.434375,5.60228571 2.422125,6.27314286 C1.818,6.25371429 1.251,6.08571429 0.754875,5.80571429 L0.754875,5.85257143 C0.754875,7.66285714 2.02275,9.17371429 3.70575,9.51657143 C3.3975,9.60228571 3.072375,9.648 2.737125,9.648 C2.49975,9.648 2.269125,9.624 2.04525,9.58057143 C2.51325,11.0651429 3.87225,12.1462857 5.482125,12.176 C4.22325,13.1782857 2.637,13.776 0.9135,13.776 C0.6165,13.776 0.324,13.7588571 0.036,13.7234286 C1.663875,14.784 3.59775,15.4022857 5.675625,15.4022857 C12.4425,15.4022857 16.142625,9.70742857 16.142625,4.76914286 C16.142625,4.60685714 16.13925,4.44571429 16.1325,4.28571429 C16.848,3.76 17.472375,3.10171429 17.965125,2.352 L17.965125,2.352 Z" id="Shape"></path>
            </g>
        </g>
    </g>
</svg>