<?xml version="1.0" encoding="UTF-8" standalone="no"?>
<svg width="18px" height="14px" viewBox="0 0 18 14" version="1.1" xmlns="http://www.w3.org/2000/svg" xmlns:xlink="http://www.w3.org/1999/xlink">
    <!-- Generator: Sketch 39 (31667) - http://www.bohemiancoding.com/sketch -->
    <title>icon-mail</title>
    <desc>Created with Sketch.</desc>
    <defs></defs>
    <g id="Icons" stroke="none" stroke-width="1" fill="none" fill-rule="evenodd">
        <g id="Artboard" transform="translate(-145.000000, -124.000000)" fill="#13161F">
            <g id="icon-mail" transform="translate(145.000000, 124.000000)">
                <g id="Group">
                    <g id="Layer_1">
                        <g>
                            <g id="Icon_19_">
                                <path d="M16.2856607,0 L1.71433928,0 C0.771388393,0 0,0.763556819 0,1.69698296 L0,12.3030171 C0,13.2364432 0.771388393,14 1.71433928,14 L16.2856607,14 C17.2286116,14 18,13.2364432 18,12.3030171 L18,1.69698296 C18,0.763556819 17.2286116,0 16.2856607,0 L16.2856607,0 L16.2856607,0 Z M16.0714285,3.60607386 L9,8.27272727 L1.92857143,3.60607386 L1.92857143,1.90909091 L9,6.57574432 L16.0714285,1.90909091 L16.0714285,3.60607386 L16.0714285,3.60607386 L16.0714285,3.60607386 Z" id="Shape"></path>
                            </g>
                        </g>
                    </g>
                </g>
            </g>
        </g>
    </g>
</svg>