<?xml version="1.0" encoding="UTF-8" standalone="no"?>
<svg width="18px" height="18px" viewBox="0 0 18 18" version="1.1" xmlns="http://www.w3.org/2000/svg" xmlns:xlink="http://www.w3.org/1999/xlink">
    <!-- Generator: Sketch 39 (31667) - http://www.bohemiancoding.com/sketch -->
    <title>icon-github</title>
    <desc>Created with Sketch.</desc>
    <defs></defs>
    <g id="Icons" stroke="none" stroke-width="1" fill="none" fill-rule="evenodd">
        <g id="Artboard" transform="translate(-188.000000, -121.000000)" fill="#13161F">
            <g id="icon-github" transform="translate(188.000000, 121.000000)">
                <path d="M8.998875,0.484875 C4.17825,0.484875 0.268875,4.393125 0.268875,9.216 C0.268875,13.0725 2.76975,16.345125 6.23925,17.499375 C6.67575,17.57925 6.8355,17.310375 6.8355,17.078625 C6.8355,16.871625 6.827625,16.322625 6.82425,15.593625 C4.395375,16.12125 3.8835,14.423625 3.8835,14.423625 C3.486375,13.415625 2.91375,13.14675 2.91375,13.14675 C2.120625,12.605625 2.973375,12.61575 2.973375,12.61575 C3.84975,12.677625 4.311,13.51575 4.311,13.51575 C5.0895,14.85 6.354,14.464125 6.85125,14.241375 C6.931125,13.676625 7.156125,13.293 7.405875,13.07475 C5.4675,12.853125 3.430125,12.105 3.430125,8.75925 C3.430125,7.806375 3.769875,7.02675 4.329,6.417 C4.239,6.195375 3.938625,5.30775 4.4145,4.10625 C4.4145,4.10625 5.148,3.871125 6.81525,5.00175 C7.511625,4.807125 8.2575,4.710375 9,4.707 C9.741375,4.710375 10.488375,4.807125 11.185875,5.000625 C12.853125,3.871125 13.584375,4.105125 13.584375,4.105125 C14.06025,5.306625 13.761,6.19425 13.671,6.415875 C14.230125,7.025625 14.56875,7.80525 14.56875,8.758125 C14.56875,12.11175 12.528,12.84975 10.582875,13.06575 C10.89675,13.33575 11.17575,13.867875 11.17575,14.682375 C11.17575,15.849 11.1645,16.790625 11.1645,17.0775 C11.1645,17.3115 11.322,17.582625 11.76525,17.497125 C15.231375,16.340625 17.73,13.07025 17.73,9.214875 C17.73,4.39425 13.820625,0.484875 8.998875,0.484875 L8.998875,0.484875 Z" id="Shape"></path>
            </g>
        </g>
    </g>
</svg>